<svg id="Layer_1" xmlns="http://www.w3.org/2000/svg" viewBox="0 0 228.49 68.25"><defs><clipPath id="clippath"><path style="fill:none;stroke-width:0" d="M0 0h65.25v68.25H0z"/></clipPath></defs><g style="clip-path:url(#clippath)"><path d="m45.89 17.89-1.9 6.74c-1.01 3.6 1.69 7.16 5.43 7.16h6.8c2.52 0 4.74-1.68 5.43-4.11l1.9-6.74c1.01-3.6-1.69-7.16-5.43-7.16h-6.8c-2.52 0-4.74 1.68-5.43 4.11ZM25.33 40.56l-5.78 20.52c-1.01 3.6 1.69 7.16 5.43 7.16h20.95c2.52 0 4.74-1.68 5.43-4.11l5.78-20.52c1.01-3.6-1.69-7.16-5.43-7.16H30.76c-2.52 0-4.74 1.68-5.43 4.11Zm-5.96 9.8 1.9-6.74c1.01-3.6-1.69-7.16-5.43-7.16h-6.8c-2.52 0-4.74 1.68-5.43 4.11l-1.9 6.74c-1.01 3.6 1.69 7.16 5.43 7.16h6.8c2.52 0 4.74-1.68 5.43-4.11ZM34.51 31.8H13.55c-3.74 0-6.44-3.57-5.43-7.16L13.9 4.12A5.661 5.661 0 0 1 19.33 0h20.95c3.74 0 6.44 3.57 5.43 7.16l-5.78 20.52a5.634 5.634 0 0 1-5.43 4.11Z" style="fill:#7834e5;stroke-width:0"/></g><path d="M87.46 52.84c-2.91 0-5.7-.39-8.37-1.17-2.67-.78-4.82-1.79-6.45-3.04l2.86-6.34c1.56 1.11 3.41 2.02 5.54 2.73s4.29 1.07 6.47 1.07c1.66 0 3.01-.16 4.03-.49 1.02-.33 1.78-.79 2.26-1.38.48-.59.73-1.27.73-2.03 0-.97-.38-1.74-1.14-2.31-.76-.57-1.77-1.04-3.02-1.4-1.25-.36-2.63-.71-4.13-1.04-1.51-.33-3.02-.74-4.52-1.22-1.51-.48-2.89-1.11-4.13-1.87-1.25-.76-2.26-1.77-3.04-3.02s-1.17-2.84-1.17-4.78c0-2.08.56-3.98 1.69-5.69 1.13-1.72 2.83-3.09 5.1-4.11 2.27-1.02 5.12-1.53 8.55-1.53 2.29 0 4.54.27 6.76.81 2.22.54 4.18 1.34 5.88 2.42l-2.6 6.4c-1.7-.97-3.4-1.69-5.1-2.16-1.7-.47-3.36-.7-4.99-.7s-2.96.19-4 .57c-1.04.38-1.79.88-2.24 1.48-.45.61-.68 1.31-.68 2.11 0 .94.38 1.69 1.14 2.26.76.57 1.77 1.03 3.02 1.38 1.25.35 2.63.69 4.13 1.04 1.51.35 3.02.75 4.52 1.2 1.51.45 2.89 1.06 4.13 1.82 1.25.76 2.26 1.77 3.04 3.02.78 1.25 1.17 2.83 1.17 4.73 0 2.05-.57 3.92-1.72 5.62-1.14 1.7-2.85 3.07-5.12 4.11-2.27 1.04-5.14 1.56-8.61 1.56ZM108.11 62.3V24.24h7.75v5.72l-.16 8.32.52 8.27v15.76h-8.11Zm16.53-9.67c-2.36 0-4.42-.52-6.19-1.56-1.77-1.04-3.15-2.63-4.13-4.76-.99-2.13-1.48-4.83-1.48-8.09s.47-6 1.4-8.11c.94-2.11 2.29-3.69 4.06-4.73s3.88-1.56 6.34-1.56c2.63 0 5 .6 7.1 1.79 2.1 1.2 3.76 2.87 4.99 5.02 1.23 2.15 1.85 4.68 1.85 7.59s-.62 5.49-1.85 7.64c-1.23 2.15-2.9 3.81-4.99 4.99-2.1 1.18-4.46 1.77-7.1 1.77Zm-1.4-6.66c1.35 0 2.56-.31 3.61-.94 1.06-.62 1.91-1.52 2.55-2.68.64-1.16.96-2.54.96-4.13s-.32-3.02-.96-4.16c-.64-1.14-1.49-2.03-2.55-2.65-1.06-.62-2.26-.94-3.61-.94s-2.57.31-3.64.94c-1.07.62-1.92 1.51-2.55 2.65s-.94 2.53-.94 4.16.31 2.97.94 4.13c.62 1.16 1.47 2.05 2.55 2.68 1.07.62 2.29.94 3.64.94ZM152.15 52.63c-2.18 0-4.06-.37-5.62-1.12-1.56-.75-2.76-1.76-3.59-3.04-.83-1.28-1.25-2.72-1.25-4.32s.41-3.12 1.22-4.37 2.11-2.23 3.87-2.94c1.77-.71 4.07-1.07 6.92-1.07h7.44v4.73h-6.55c-1.91 0-3.22.31-3.93.94s-1.07 1.4-1.07 2.34c0 1.04.41 1.86 1.22 2.47.81.61 1.93.91 3.35.91s2.56-.32 3.64-.96c1.07-.64 1.85-1.59 2.34-2.83l1.25 3.74c-.59 1.8-1.66 3.17-3.22 4.11-1.56.94-3.57 1.4-6.03 1.4Zm8.53-.42v-5.46l-.52-1.2v-9.78c0-1.73-.53-3.08-1.59-4.06-1.06-.97-2.68-1.46-4.86-1.46-1.49 0-2.96.23-4.39.7-1.44.47-2.66 1.1-3.67 1.9l-2.91-5.67c1.53-1.07 3.36-1.91 5.51-2.5 2.15-.59 4.33-.88 6.55-.88 4.26 0 7.57 1.01 9.93 3.02 2.36 2.01 3.54 5.15 3.54 9.41v15.96h-7.59ZM175.6 52.21V24.23h7.75v7.9l-1.09-2.29c.83-1.98 2.17-3.48 4-4.5 1.84-1.02 4.07-1.53 6.71-1.53v7.49c-.35-.03-.66-.06-.94-.08-.28-.02-.57-.03-.88-.03-2.22 0-4.01.63-5.38 1.9s-2.05 3.23-2.05 5.9V52.2h-8.11ZM197.81 52.21V13.63h8.11v38.58h-8.11Zm6.7-5.72.21-9.88 13.05-12.38h9.67l-12.53 12.74-4.21 3.43-6.19 6.08Zm14.15 5.72-9.46-11.75 5.1-6.29 14.2 18.04h-9.83Z" style="fill:#1f1f1f;stroke-width:0"/></svg>